<svg width="82" height="20" viewBox="0 0 82 20" fill="none" xmlns="http://www.w3.org/2000/svg">
<g clip-path="url(#clip0_1_482)">
<path d="M14.4848 20C14.4848 20 23.5695 20 25.8229 19.4C27.0917 19.06 28.0459 18.08 28.3808 16.87C29 14.65 29 9.98 29 9.98C29 9.98 29 5.34 28.3808 3.14C28.0459 1.9 27.0917 0.94 25.8229 0.61C23.5695 0 14.4848 0 14.4848 0C14.4848 0 5.42037 0 3.17711 0.61C1.9286 0.94 0.954148 1.9 0.59888 3.14C0 5.34 0 9.98 0 9.98C0 9.98 0 14.65 0.59888 16.87C0.954148 18.08 1.9286 19.06 3.17711 19.4C5.42037 20 14.4848 20 14.4848 20Z" fill="#FF0033"/>
<path d="M19 10L11.5 5.75V14.25L19 10Z" fill="white"/>
<path d="M36.8851 19.26C39.9651 19.26 41.2751 18.05 41.2751 14.85C41.2751 12.31 40.1551 11.25 38.0051 9.43C36.2451 7.95 35.4851 7.4 35.4851 5.66C35.4851 4.48 35.8851 3.85 36.9751 3.85C38.1251 3.85 38.4251 4.68 38.3551 7.03L40.9751 6.86C41.3951 3.4 40.1751 1.74 37.0951 1.74C33.9551 1.74 32.7151 3.26 32.7151 5.81C32.7151 8.47 33.6451 9.51 35.9351 11.33C37.4451 12.51 38.5051 13.44 38.5051 15.3C38.5051 16.54 38.0551 17.16 36.9851 17.16C35.8851 17.16 35.4551 16.43 35.5151 14.16L32.9051 14.2C32.3851 17.64 33.6551 19.26 36.8851 19.26Z" fill="#212121"/>
<path d="M45.1865 19.18C45.9065 19.18 47.0365 19.06 47.8765 18.65L47.5265 16.84C47.1665 16.96 46.7665 17.02 46.3165 17.02C45.7165 17.02 45.6365 16.63 45.6365 15.61V8.62H47.6365V6.41H45.5165V3H43.3665L42.9965 6.41H41.7265V8.62H42.8765V16.01C42.8765 17.9 43.0765 19.18 45.1865 19.18Z" fill="#212121"/>
<path d="M51.3338 19.2C52.7038 19.2 53.6638 18.7 54.4238 17.64H54.4538L54.5538 19H56.7838V6.41H53.9138V16.41C53.6438 16.9 53.0838 17.21 52.5038 17.21C51.7538 17.21 51.5938 16.61 51.5938 15.65V6.41H48.7138V15.81C48.7138 17.82 49.3038 19.2 51.3338 19.2Z" fill="#212121"/>
<path d="M64.0049 4.71C64.0049 5.51 64.0349 6.29 64.1249 7.41H64.0949C63.5449 6.63 62.6349 6.16 61.4549 6.16C59.0849 6.16 58.4449 8.5 58.4449 11.62V13.64C58.4449 17.24 59.0549 19.2 61.4049 19.2C62.7649 19.2 63.7749 18.5 64.2749 17.49H64.2949L64.5649 19H66.7849V1.37H64.0049V4.71ZM64.0049 16.04C63.7349 16.75 63.1649 17.19 62.5449 17.17C61.5849 17.13 61.3449 16.03 61.3449 13.43V11.8C61.3449 9.36 61.5849 8.17 62.7149 8.17C63.2349 8.17 63.7149 8.44 64.0049 8.96V16.04Z" fill="#212121"/>
<path d="M70.0727 4.98C71.0927 4.98 71.5327 4.66 71.5327 3.32C71.5327 2.1 71.0927 1.68 70.0727 1.68C69.0827 1.68 68.6127 2.04 68.6127 3.32C68.6127 4.66 69.0827 4.98 70.0727 4.98ZM68.6927 19H71.4327V6.41H68.6927V19Z" fill="#212121"/>
<path d="M77.1785 6.17C73.9085 6.17 72.9985 8.19 72.9985 11.79V13.63C72.9985 16.98 73.6385 19.21 77.1185 19.21C80.5085 19.21 81.2585 17.13 81.2585 13.63V11.79C81.2585 8.38 80.5385 6.17 77.1785 6.17ZM78.3585 14.64C78.3585 16.26 78.1385 17.29 77.1285 17.29C76.1185 17.29 75.9185 16.24 75.9185 14.64V10.72C75.9185 9.33 76.0785 8.1 77.1285 8.1C78.2185 8.1 78.3585 9.4 78.3585 10.72V14.64Z" fill="#212121"/>
</g>
<defs>
<clipPath id="clip0_1_482">
<rect width="82" height="20" fill="white"/>
</clipPath>
</defs>
</svg>